PathFileType	4	(X/Y/Z)	Patient4_TMGait_0pt4_02_right_26.trc.trc
DataRate	CameraRate	NumFrames	NumMarkers	Units	OrigDataRate	OrigDataStartFrame	OrigNumFrames
76.923076923077	76.923076923077	4	33	mm	76.923076923077	89	       141
Frame#	Time	Sacral			L.Shoulder			Chest			R.Shoulder			Neck			R.ASIS			L.ASIS			R.Thigh.Superior			R.Thigh.Lateral			R.Thigh.Inferior			R.Patella			L.Thigh.Superior			L.Thigh.Lateral			L.Thigh.Inferior			L.Patella			L.Shank.Superior			L.Shank.Lateral			L.Shank.Inferior			R.Shank.Superior			R.Shank.Lateral			R.Shank.Inferior			R.Heel			R.Midfoot.Superior			R.Midfoot.Lateral			R.Toe			L.Heel			L.Midfoot.Lateral			L.Midfoot.Superior			L.Toe			L.Elbow			L.Wrist			R.Elbow			R.Wrist			
		X1	Y1	Z1	X2	Y2	Z2	X3	Y3	Z3	X4	Y4	Z4	X5	Y5	Z5	X6	Y6	Z6	X7	Y7	Z7	X8	Y8	Z8	X9	Y9	Z9	X10	Y10	Z10	X11	Y11	Z11	X12	Y12	Z12	X13	Y13	Z13	X14	Y14	Z14	X15	Y15	Z15	X16	Y16	Z16	X17	Y17	Z17	X18	Y18	Z18	X19	Y19	Z19	X20	Y20	Z20	X21	Y21	Z21	X22	Y22	Z22	X23	Y23	Z23	X24	Y24	Z24	X25	Y25	Z25	X26	Y26	Z26	X27	Y27	Z27	X28	Y28	Z28	X29	Y29	Z29	X30	Y30	Z30	X31	Y31	Z31	X32	Y32	Z32	X33	Y33	Z33	

89	35.474000000000	885.705006175778	1007.544277802156	456.967295685526	1048.046270729767	1426.263633697673	245.082302193679	1168.192193936031	1363.572472505126	396.454909639683	1105.022841883069	1446.154693758376	574.940385455695	1048.790078608297	1493.585025115963	398.511645826410	1121.621264337154	941.020110801167	554.051346354993	1086.777518064750	960.103367305807	282.004353608741	1148.468141024855	732.804618436711	530.210886969774	1067.646570108490	627.737553102823	603.024429607850	1137.894014911049	565.971496638803	523.301756736097	1129.999981955004	463.430469917986	543.875813144705	1152.368650130670	759.244427092778	306.362756803782	1071.664523928910	637.267883086570	249.219273383509	1167.644715914564	567.194339691770	305.052623570404	1174.067872778124	497.416789804264	312.570331325462	1150.031563674289	423.626912566623	304.436261390330	1062.732872488217	306.659992584695	255.533353921697	1122.598070651106	196.126667277382	320.874083477068	1064.018095473481	390.783214856892	554.707565578253	956.264342294116	330.770942967245	622.717780923185	955.706504052275	221.737376762160	569.776080931171	768.615657633754	110.891191200840	551.187186202424	946.388157365884	108.167367362874	586.784883244701	845.068609832799	76.058302336956	624.427683016501	1042.915377027151	35.626862882709	614.255067323339	1002.672765641705	38.363663569412	365.911233951607	1072.042954017469	35.438606973981	281.284852481495	1155.721213562998	97.454187743250	304.827204181658	1283.019251180812	47.750798033568	269.011004717649	983.973085725971	1074.810201782144	143.094684908227	1046.033177995967	821.187737094751	130.387315903432	1144.955815921645	1104.538341227038	702.738224007745	1377.707505338733	1014.408546855820	651.045426131328	
90	35.487000000000	885.513235100639	1007.717166198437	453.599878941037	1049.114278222678	1426.799595958891	242.236554452936	1168.033776094478	1364.324974662890	394.611837125859	1103.284130489865	1446.741946402706	572.619993085396	1048.572646079983	1494.160631499331	395.524027205128	1121.094405973649	941.741459387751	551.898481304793	1087.659359680336	960.614346901870	279.778148073875	1153.016849208077	735.171913290707	527.998060120665	1074.956000094552	628.423206193575	600.941863463766	1147.184867250381	567.838616530300	521.537073067997	1140.509709996762	463.969923927871	542.875858503672	1151.788430024923	758.488188044329	304.093992673000	1070.014504304471	637.163428816687	247.502735898560	1165.095788478991	566.408133111421	303.719771268461	1170.878260271924	496.770478768981	311.593801160871	1146.587218286066	423.099923720519	303.574791441331	1058.976917810846	306.375759394356	254.931604724762	1118.036149235996	195.760912920596	320.622686689855	1072.531981683268	391.965062210306	553.744726049496	962.685469876372	335.586428999688	621.565452431343	959.412885070208	226.192209894472	569.584263088060	769.041271220485	122.918537858017	551.139837730236	946.280095609161	111.151409468945	586.835330718798	843.478257584314	84.230527898206	624.295857291930	1038.282970413227	34.913982253299	614.207852442865	997.376447692764	38.369474491389	365.881382170024	1066.735418094739	35.399674613148	281.266543314674	1150.548715444302	97.234331426971	304.874388565741	1277.821336229141	47.190982162189	268.988691314350	990.977033584091	1074.770900699845	138.096836899528	1061.902340354547	823.319516160071	125.487462796299	1137.359068733570	1104.321184634089	700.754316940560	1365.358967624645	1000.212772652113	650.736984296583	
91	35.500000000000	885.234263627562	1007.782065216673	450.342722091608	1050.261202637703	1427.274620020060	239.553728457911	1167.842591432726	1364.957944408350	392.978022031107	1101.421120626438	1447.149053895254	570.493930210704	1048.377636664656	1494.656001211949	392.726221567705	1120.422095104160	942.395382721114	549.874998213922	1088.419606017449	961.038032281422	277.666499342332	1157.597379528922	737.735974205951	525.928144289201	1082.406754435190	629.306959712763	598.968712334265	1156.591676448157	570.015714577847	519.882264973720	1151.194662715153	464.934150355026	541.767414168949	1151.072926186977	757.758309334411	302.168037308491	1068.477458645303	637.103261265789	245.796966673206	1162.557938658540	565.667473040944	302.538259508809	1167.681097943779	496.112144448775	310.655867724621	1143.137891154669	422.566530155688	302.730562377305	1055.231487397494	306.085541859831	254.289492363712	1113.483440783567	195.391179986157	320.355751738182	1081.372866247584	393.459073025724	552.693191765563	969.624582647851	340.695537318194	620.387320966282	963.622021148788	231.062591744132	569.324130308915	770.303082113182	135.696530266670	550.995928177623	946.592056039557	114.681290418593	586.790870421079	842.481388337598	93.196477713023	624.107323974927	1033.798437502657	34.150668341517	614.167627626107	992.089904570749	38.373964664161	365.840983598118	1061.443531034519	35.368942686324	281.240186488155	1145.391549553564	97.027129682798	304.915473103146	1272.639475789898	46.631070065954	268.973444772528	998.127191957836	1074.849491579045	133.167559745434	1078.107175834782	825.935282016984	120.786889569004	1129.547374563871	1103.929949705718	698.754619223660	1351.857387986192	985.733543909645	650.945591616345	
92	35.513000000000	884.877647240542	1007.752583297178	447.205153046529	1051.455144727733	1427.688669771827	237.055189403653	1167.618814502966	1365.476992741890	391.551245132274	1099.464037010603	1447.383802410373	568.566298687980	1048.221143087265	1495.071327118630	390.152421480755	1119.622105607417	942.990016993442	547.978428062215	1089.063526733477	961.383461684184	275.668545655998	1162.095140012984	740.484804636494	523.983740376384	1089.865884208257	630.415891339379	597.114664052641	1165.947816138076	572.519241913187	518.335714724277	1161.916490017509	466.333201503013	540.576597356328	1150.272123694238	757.074990416508	300.538024555214	1067.043076173364	637.074387231522	244.118000236517	1160.072900196438	564.969747485977	301.467319375860	1164.537341418456	495.446475552572	309.748453753563	1139.735780147291	422.027119376160	301.904340505497	1051.528305407055	305.802466378891	253.614253771895	1108.961636458381	195.021707158308	320.074169884030	1090.409265004359	395.277221945924	551.569486452571	976.958533459364	346.044216872525	619.186804169158	968.267232853046	236.288512172756	568.992434105750	772.397705320335	148.961762969948	550.736224683076	947.349400718521	118.731961624516	586.642245580661	842.135327439057	102.771013031528	623.840632992554	1029.590957709337	33.385156249032	614.109839792663	986.824900195567	38.380087911982	365.787491263733	1056.179083195665	35.348241347118	281.202497822495	1140.256341128215	96.841426121301	304.942998245891	1267.480420723092	46.093253941012	268.958993915728	1005.423764279524	1075.045870664116	128.327566661546	1094.571268396164	829.042995551424	116.314613411948	1121.561099343669	1103.370372936197	696.730302487531	1337.171636565306	971.091910036947	651.681810805039	
